<?xml version="1.0" encoding="UTF-8" standalone="no"?><!DOCTYPE svg PUBLIC "-//W3C//DTD SVG 1.1//EN" "http://www.w3.org/Graphics/SVG/1.1/DTD/svg11.dtd"><svg width="100%" height="100%" viewBox="0 0 786 358" version="1.1" xmlns="http://www.w3.org/2000/svg" xmlns:xlink="http://www.w3.org/1999/xlink" xml:space="preserve" xmlns:serif="http://www.serif.com/" style="fill-rule:evenodd;clip-rule:evenodd;stroke-linecap:round;stroke-linejoin:round;stroke-miterlimit:1.5;"><rect id="supply-line" serif:id="supply line" x="0.617" y="0.089" width="784.953" height="356.932" style="fill:none;"/><path d="M18.658,90.089l341.959,0l0,60l-92.258,0.045c-10.833,0 -19.628,8.796 -19.628,19.629l-0,144.706c-0,10.833 8.795,19.628 19.628,19.628l237.63,0c10.833,0 19.628,-8.795 19.628,-19.628l0,-144.706c0,-10.833 -8.795,-19.629 -19.628,-19.629l-85.372,-0.045l0,-60l345,0" style="fill:none;stroke:#0e00f9;stroke-width:4.17px;"/><path d="M18.658,28.378l748.871,-0" style="fill:none;stroke:#0e00f9;stroke-width:4.17px;"/><g><circle cx="390.617" cy="120.089" r="33.563" style="fill:#ffdfd9;stroke:#ff2600;stroke-width:4.17px;"/><text x="365.605px" y="146.951px" style="font-family:'ArialMT', 'Arial', sans-serif;font-size:75px;fill:#ff2600;">X</text></g><text x="19.661px" y="69.296px" style="font-family:'Lato-Regular', 'Lato', sans-serif;font-size:25px;fill:#ff2600;">sa<tspan x="42.748px " y="69.296px ">t</tspan>ur<tspan x="74.548px 86.811px " y="69.296px 69.296px ">at</tspan>ed <tspan x="128.711px 141.336px " y="69.296px 69.296px ">va</tspan>por<tspan x="190.523px 196.411px 215.898px 228.161px " y="69.296px 69.296px 69.296px 69.296px "> wat</tspan>er<tspan x="258.348px " y="69.296px ">,</tspan> 1 MP<tspan x="329.148px " y="69.296px ">a</tspan></text><g transform="matrix(0.67625,0,0,0.67625,-360.324,-495.694)"><text x="933px" y="1192.89px" style="font-family:'Lato-Regular', 'Lato', sans-serif;font-size:36.969px;fill:#ff2600;">2 m</text><text x="994.312px" y="1192.89px" style="font-family:'Lato-Regular', 'Lato', sans-serif;font-size:36.969px;fill:#ff2600;">³</text></g><path d="M404.343,187.589l-11.25,22.5l-11.25,-22.5l11.25,11.25l11.25,-11.25Z" style="fill:#167d1c;"/><path d="M360.617,60.089l0,0c8.614,0 16.874,3.422 22.964,9.512c6.091,6.091 9.512,14.351 9.512,22.964c0,33.531 0,83.997 0,106.274" style="fill:none;stroke:#167d1c;stroke-width:3.75px;stroke-dasharray:15,7.5,0,0;stroke-dashoffset:7.5;"/><path d="M360.617,150.089l-93.542,0c-10.349,0 -18.738,8.39 -18.738,18.739c-0,35.327 -0,111.389 -0,146.636c-0,4.942 1.963,9.681 5.457,13.176c3.495,3.494 8.234,5.457 13.176,5.457c50.508,0 189.616,0 240.064,0c10.263,0 18.583,-8.32 18.583,-18.583c0,-35.545 0,-112.729 0,-147.64c-0,-9.822 -7.962,-17.785 -17.785,-17.785l-87.215,0" style="fill:none;stroke:#0e00f9;stroke-opacity:0.48;stroke-width:20.83px;"/></svg>