<?xml version="1.0" encoding="UTF-8" standalone="no"?><!DOCTYPE svg PUBLIC "-//W3C//DTD SVG 1.1//EN" "http://www.w3.org/Graphics/SVG/1.1/DTD/svg11.dtd"><svg width="100%" height="100%" viewBox="0 0 3600 853" version="1.1" xmlns="http://www.w3.org/2000/svg" xmlns:xlink="http://www.w3.org/1999/xlink" xml:space="preserve" xmlns:serif="http://www.serif.com/" style="fill-rule:evenodd;clip-rule:evenodd;stroke-linecap:round;stroke-linejoin:round;stroke-miterlimit:1.5;"><rect id="ms1.038" x="0" y="0.677" width="3600" height="852.291" style="fill:none;"/><g><path d="M1364.63,341.237l9.24,-13.996l-16.74,1.005l10.245,2.745l-2.745,10.246Z"/><path d="M973.26,567.192l-16.74,1.005l9.24,-13.995l-2.745,10.245l10.245,2.745Z"/><path d="M1367.37,330.991c-48.666,28.098 -355.69,205.358 -404.356,233.456" style="fill:none;stroke:#000;stroke-width:1.25px;"/><path d="M947.696,552.913l17.648,30.567" style="fill:none;stroke:#000;stroke-width:1.25px;"/><path d="M1382.69,342.525l-17.648,-30.567" style="fill:none;stroke:#000;stroke-width:1.25px;"/><g><path d="M1209.1,400.72l-106.558,61.522l18.75,32.476l106.558,-61.522l-18.75,-32.476Z" style="fill:#fff;"/><g transform="matrix(0.866025,-0.5,0.5,0.866025,1806.75,-2038.97)"><text x="-1839.8px" y="1851.17px" style="font-family:'Lato-Regular', 'Lato', sans-serif;font-size:50px;fill:#200097;">7 in</text></g></g></g><g><path d="M3161.93,341.237l9.24,-13.996l-16.74,1.005l10.245,2.745l-2.745,10.246Z"/><path d="M2770.57,567.192l-16.74,1.005l9.24,-13.995l-2.745,10.245l10.245,2.745Z"/><path d="M3164.68,330.991c-48.666,28.098 -355.69,205.358 -404.356,233.456" style="fill:none;stroke:#000;stroke-width:1.25px;"/><path d="M2745,552.913l17.648,30.567" style="fill:none;stroke:#000;stroke-width:1.25px;"/><path d="M3180,342.525l-17.648,-30.567" style="fill:none;stroke:#000;stroke-width:1.25px;"/><g><path d="M3006.4,400.72l-106.558,61.522l18.75,32.476l106.558,-61.522l-18.75,-32.476Z" style="fill:#fff;"/><g transform="matrix(0.866025,-0.5,0.5,0.866025,2047.54,-1140.31)"><text x="-42.49px" y="1851.17px" style="font-family:'Lato-Regular', 'Lato', sans-serif;font-size:50px;fill:#200097;">7 in</text></g></g></g><path id="highlevel" d="M2325,344.789l852.909,-0" style="fill:none;stroke:#000;stroke-width:1.25px;"/><path id="highlevel1" serif:id="highlevel" d="M525,344.789l853.687,-0" style="fill:none;stroke:#000;stroke-width:1.25px;"/><path id="highlevel2" serif:id="highlevel" d="M1518.75,344.789l375,-0" style="fill:none;stroke:#000;stroke-width:1.25px;"/><path id="highlevel3" serif:id="highlevel" d="M1106.25,585.744l965.872,0" style="fill:none;stroke:#000;stroke-width:1.25px;"/><path id="highlevel4" serif:id="highlevel" d="M2146.22,585.744l616.535,0" style="fill:none;stroke:#000;stroke-width:1.25px;"/><path id="man" d="M1837.5,299.61l60.239,-0l-0,165.657l180.716,-0l0,271.536c0,23.842 9.472,46.707 26.331,63.566c16.858,16.859 39.724,26.331 63.566,26.331c86.962,-0 213.761,-0 271.099,-0c19.748,-0 39.148,-5.199 56.25,-15.073c165.944,-95.807 1066.8,-615.916 1066.8,-615.916l-30.119,-52.169c-0,0 -941.922,544.573 -1064.37,615.366c-8.558,4.948 -18.269,7.553 -28.154,7.553l-256.023,-0c-11.972,-0 -23.454,-4.756 -31.919,-13.222c-8.466,-8.465 -13.222,-19.947 -13.222,-31.919c0,-84.041 0,-256.053 0,-256.053l180.717,-0l-0,-165.657l60.238,-0l0,-240.956l-542.149,0l0,240.956Z" style="fill:#fffdf2;stroke:#410200;stroke-width:1.25px;"/><path id="after" d="M3184.29,344.789l119.995,-0l-813.726,469.805c-13.736,7.93 -29.318,12.106 -45.179,12.106c-53.972,-0 -186.478,-0 -276.57,-0c-49.904,-0 -90.359,-40.455 -90.359,-90.359l0,-150.597l60.239,0l0,135.538c0,11.982 4.76,23.473 13.233,31.946c8.473,8.473 19.964,13.233 31.946,13.233l258.955,-0c7.94,-0 15.739,-2.093 22.613,-6.067l718.853,-415.605Z" style="fill:#461dff;"/><path id="man1" serif:id="man" d="M37.5,299.61l60.239,-0l-0,165.657l180.716,-0l0,270.671c0,24.071 9.563,47.157 26.584,64.178c17.021,17.021 40.107,26.584 64.178,26.584c86.936,-0 213.086,-0 270.234,-0c19.748,-0 39.148,-5.199 56.25,-15.073c165.944,-95.807 1066.8,-615.916 1066.8,-615.916l-30.119,-52.169c-0,0 -941.922,544.573 -1064.37,615.366c-8.558,4.948 -18.269,7.553 -28.154,7.553l-256.006,-0c-11.977,-0 -23.463,-4.758 -31.931,-13.227c-8.469,-8.468 -13.227,-19.954 -13.227,-31.931l0,-256.036l180.717,-0l-0,-165.657l60.238,-0l0,-240.956l-542.149,0l-0,240.956Z" style="fill:#fffdf2;stroke:#410200;stroke-width:1.25px;"/><path id="before" d="M97.739,344.789l421.672,-0l-0,120.478l-180.717,-0l0,256.015c0,11.982 4.76,23.473 13.233,31.946c8.473,8.473 19.964,13.233 31.946,13.233l258.955,-0c7.94,-0 15.739,-2.093 22.613,-6.067l302.084,-174.65l119.417,0l-396.379,228.85c-13.736,7.93 -29.318,12.106 -45.179,12.106c-53.972,-0 -186.478,-0 -276.57,-0c-49.904,-0 -90.359,-40.455 -90.359,-90.359l0,-271.074l-180.716,-0l-0,-120.478Z" style="fill:#461dff;"/><text x="824.063px" y="337.84px" style="font-family:'Lato-Regular', 'Lato', sans-serif;font-size:50px;fill:#200097;">BEF<tspan x="913.213px " y="337.84px ">O</tspan>RE</text><text x="2642.83px" y="337.84px" style="font-family:'Lato-Regular', 'Lato', sans-serif;font-size:50px;fill:#200097;">AFTER</text></svg>